<?xml version="1.0" encoding="UTF-8" standalone="no"?>
<!-- Created with Inkscape (http://www.inkscape.org/) -->

<svg
   xmlns:dc="http://purl.org/dc/elements/1.1/"
   xmlns:cc="http://creativecommons.org/ns#"
   xmlns:rdf="http://www.w3.org/1999/02/22-rdf-syntax-ns#"
   xmlns:svg="http://www.w3.org/2000/svg"
   xmlns="http://www.w3.org/2000/svg"
   xmlns:sodipodi="http://sodipodi.sourceforge.net/DTD/sodipodi-0.dtd"
   xmlns:inkscape="http://www.inkscape.org/namespaces/inkscape"
   width="744.09448819"
   height="1052.3622047"
   id="svg3176"
   version="1.1"
   inkscape:version="0.48.3.1 r9886"
   sodipodi:docname="icons_memejet.svg">
  <sodipodi:namedview
     id="base"
     pagecolor="#ffffff"
     bordercolor="#666666"
     borderopacity="1.0"
     inkscape:pageopacity="0.0"
     inkscape:pageshadow="2"
     inkscape:zoom="0.5720464"
     inkscape:cx="372.04724"
     inkscape:cy="526.18109"
     inkscape:document-units="px"
     inkscape:current-layer="layer1"
     showgrid="false"
     inkscape:window-width="1366"
     inkscape:window-height="744"
     inkscape:window-x="0"
     inkscape:window-y="24"
     inkscape:window-maximized="1" />
  <defs
     id="defs3178" />
  <metadata
     id="metadata3181">
    <rdf:RDF>
      <cc:Work
         rdf:about="">
        <dc:format>image/svg+xml</dc:format>
        <dc:type
           rdf:resource="http://purl.org/dc/dcmitype/StillImage" />
        <dc:title></dc:title>
      </cc:Work>
    </rdf:RDF>
  </metadata>
  <g
     id="layer1"
     inkscape:groupmode="layer"
     inkscape:label="Layer 1">
    <path
       id="path3163"
       d="m 370.01265,445.00538 c -1.74903,0 -3.25409,0.62046 -4.46573,1.83209 l -31.94713,31.94714 c -1.21164,1.21164 -1.8321,2.7167 -1.8321,4.46573 0,1.74902 0.62046,3.13958 1.8321,4.35122 l 31.94713,31.94714 c 1.21164,1.21163 2.7167,1.83209 4.46573,1.83209 1.74903,0 3.25409,-0.62046 4.46573,-1.83209 l 3.66419,-3.66419 c 1.21163,-1.20918 1.83209,-2.61685 1.83209,-4.35122 0,-1.73437 -0.62046,-3.22236 -1.83209,-4.46573 l -23.93173,-23.81722 23.93173,-23.93173 c 1.21163,-1.21164 1.83209,-2.60219 1.83209,-4.35122 0,-1.74903 -0.62046,-3.25409 -1.83209,-4.46573 l -3.66419,-3.66419 c -1.21164,-1.21163 -2.7167,-1.83209 -4.46573,-1.83209 z m 150.68972,0 c -1.76614,0 -3.17381,0.58872 -4.35122,1.83209 l -3.7787,3.66419 c -1.21163,1.20918 -1.83209,2.73136 -1.83209,4.46573 0,1.70264 0.62046,3.19059 1.83209,4.46573 l 23.81722,23.81722 -23.81722,23.81722 c -1.21163,1.20918 -1.83209,2.73136 -1.83209,4.46573 0,1.70263 0.62046,3.19059 1.83209,4.46573 l 3.7787,3.66418 c 1.21163,1.21164 2.61927,1.8321 4.35122,1.8321 1.73195,0 3.25409,-0.62046 4.46573,-1.8321 l 31.94714,-31.94713 c 1.21163,-1.2776 1.83209,-2.76555 1.83209,-4.46573 0,-1.73195 -0.62046,-3.25409 -1.83209,-4.46573 L 525.1681,446.83747 c -1.17741,-1.24337 -2.69959,-1.83209 -4.46573,-1.83209 z m -335.27317,4.12221 c -0.84764,0 -21.18359,46.06294 -21.18359,47.97796 0,0.66618 0.23726,1.76841 0.57253,2.51913 0.5637,1.26301 0.2366,1.66328 -4.58023,4.12221 -6.79627,3.46936 -6.92836,4.45506 -0.45803,4.0077 2.62041,-0.18086 5.07384,-0.34956 5.49628,-0.45802 0.42263,-0.10835 -1.58175,1.77669 -4.58023,4.23672 l -5.49628,4.46573 c 2.01156,2.58929 3.92438,4.79294 7.21387,6.41232 2.39462,1.1547 5.96372,1.90905 9.50398,1.60309 l -2.74814,-0.45803 c -5.35675,-0.90278 -11.6796,-4.73761 -11.6796,-7.09936 0,-0.40845 2.2637,-2.5642 5.03826,-4.80925 5.84284,-4.72775 6.35704,-5.83668 2.40463,-5.49628 -1.47975,0.12781 -3.98466,0.32685 -5.49629,0.45802 -2.73799,0.23763 -2.74246,0.27647 2.40463,-2.29011 5.25624,-2.62096 5.44428,-2.7606 4.12221,-5.49628 -0.43707,-0.90444 -0.0211,-1.03056 4.69474,-1.03056 l 5.26727,0 -2.63364,1.9466 c -2.30624,1.71327 -2.56445,2.04297 -1.48857,2.40463 0.67593,0.22718 3.39245,0.021 5.9543,-0.45803 l 4.58024,-0.91604 -6.18332,5.72529 c -7.19943,6.62782 -10.5851,10.13346 -9.38948,9.50399 0.4699,-0.24745 0.80154,-0.227 0.80154,0.1145 5.53956,-0.19852 17.48517,-7.75855 23.81722,-9.61849 0.5098,-0.19472 0.25371,5.3891 -0.57253,12.02311 -0.50544,4.05857 1.13978,3.29609 5.15277,-2.40462 1.87119,-2.65804 3.43865,-4.93786 3.54968,-5.03826 0.11135,-0.10058 1.20922,1.27474 2.40462,2.97716 1.19544,1.70256 2.5103,3.09165 2.97715,3.09165 0.54062,0 1.25184,-1.80541 1.8321,-4.80924 l 0.91604,-4.69474 8.01541,7.67189 c 8.05594,7.72312 10.23789,9.22679 9.50399,6.18332 -0.20893,-0.86666 -0.95199,-4.69189 -1.71759,-8.47344 -0.76559,-3.78155 -1.54537,-7.28107 -1.71758,-7.7864 -0.21597,-0.63317 1.76632,-0.0394 6.52683,2.06111 10.15383,4.48017 10.92749,4.23261 6.06881,-1.9466 -1.41984,-1.80571 -3.28344,-4.20008 -4.12221,-5.38178 l -1.48858,-2.17561 5.26727,0 c 5.29988,0 5.37562,0.0213 10.30553,2.86265 4.02324,2.31881 5.13939,3.18682 5.49628,4.69474 0.41589,1.75635 0.44245,1.8093 0.34352,-0.34352 -0.0969,-2.10925 -0.42706,-2.49139 -4.46573,-5.03826 l -4.46573,-2.74814 -10.42003,-23.93172 c -6.95163,-15.79555 -10.88872,-23.93045 -11.56509,-24.04623 -0.72233,-0.12338 -3.41308,3.53308 -9.04597,12.59564 l -8.01541,12.93916 -7.9009,-12.82465 c -4.39292,-7.04371 -8.39839,-12.82466 -8.81695,-12.82466 z m 33.66472,1.71759 9.04596,21.06908 c 4.9519,11.56307 9.3468,21.8641 9.84751,22.90117 l 0.91605,1.9466 -5.49629,-0.22901 -5.38177,-0.11451 -4.92375,-11.22157 c -2.913,-6.69942 -5.26493,-11.24228 -5.8398,-11.33608 -0.63204,-0.10308 -3.34918,3.71237 -8.01541,11.22157 l -7.09937,11.45059 -6.64134,-10.87806 c -3.69082,-5.97479 -7.17217,-11.05046 -7.67189,-11.22157 -1.25128,-0.42897 -1.33761,-0.19864 -6.52684,11.67959 l -4.58023,10.53454 -5.38178,0 c -3.9538,0 -5.14946,-0.15283 -4.92375,-0.68703 9.3631,-22.16031 19.0972,-44.40629 19.35149,-44.19927 0.18493,0.15049 3.668,5.80785 7.7864,12.48114 4.11833,6.67322 8.02175,12.1554 8.58794,12.25213 0.72591,0.12385 2.72946,-2.71428 6.87035,-9.50399 3.23002,-5.29621 6.85112,-11.03048 8.01541,-12.82465 l 2.06111,-3.32067 z m -1.9466,25.19129 4.58024,10.76355 c 2.52121,5.91011 4.93932,11.09238 5.38177,11.56509 0.44252,0.47265 2.43786,3.04666 4.46573,5.7253 l 3.66419,4.92375 -7.21387,-3.20617 c -3.97942,-1.72806 -7.41027,-2.97055 -7.6719,-2.74814 -0.26162,0.22282 0.36924,4.53242 1.48858,9.50399 1.11937,4.97161 1.9968,9.11173 1.9466,9.16047 -0.0501,0.0479 -0.54571,-0.46693 -1.14506,-1.14506 -3.33532,-3.77386 -14.47768,-13.93582 -15.45829,-14.08422 -0.95643,-0.14455 -1.19819,0.53893 -1.60308,3.77869 -0.26785,2.14399 -0.60588,4.07898 -0.80154,4.35122 -0.1953,0.2724 -1.22762,-0.72147 -2.29012,-2.17561 -1.06254,-1.45417 -2.33834,-2.63363 -2.86265,-2.63363 -0.52442,0 -2.57867,2.28092 -4.46573,5.03826 -1.88705,2.75737 -3.26424,4.33752 -3.09165,3.54968 0.1728,-0.7878 0.5674,-4.09836 0.80154,-7.32838 0.37297,-5.14206 0.25088,-5.8398 -0.68704,-5.8398 -1.28902,0 -21.02152,8.39616 -22.90117,9.733 -0.72804,0.51779 2.23471,-2.38901 6.64134,-6.41233 7.92882,-7.23904 9.38343,-9.07161 7.21387,-9.04596 -1.10772,0.0139 -5.8845,0.84826 -8.47344,1.48858 -0.88405,0.21864 -0.53643,-0.22044 1.14506,-1.48858 2.2401,-1.68941 3.20738,-3.35203 7.21387,-12.59564 l 4.58024,-10.53454 6.87035,11.33608 c 3.78023,6.20083 7.21772,11.22157 7.67189,11.22157 0.45436,0 2.78849,-3.12449 5.15277,-6.98486 2.36435,-3.86029 5.56945,-9.0069 7.09936,-11.45058 l 2.74814,-4.46573 z m 26.56536,31.2601 c -0.80037,0.20424 -0.10333,1.35197 2.06111,3.09166 3.95182,3.17641 5.14521,3.0032 1.9466,-0.22901 -1.02458,-1.03543 -1.03953,-1.01341 0.45802,-0.34352 0.86405,0.38624 1.69908,0.57125 1.83209,0.45802 0.50925,-0.43384 -0.79949,-1.29598 -3.32067,-2.29012 -1.48462,-0.58539 -2.49692,-0.8096 -2.97715,-0.68703 z m 5.15277,7.32837 c -0.17145,0.0403 -0.59254,0.55051 -1.03056,1.25957 -2.36864,3.83399 -6.72012,6.58465 -12.13762,7.67189 l -2.51913,0.45803 2.29012,0.1145 c 3.47402,0.077 8.90885,-2.80006 11.45059,-6.06881 1.15799,-1.48912 2.07576,-2.98063 2.0611,-3.32067 -0.004,-0.085 -0.0573,-0.12792 -0.1145,-0.11451 z"
       style="fill:#000000"
       inkscape:connector-curvature="0" />
  </g>
</svg>
