<?xml version="1.0" encoding="UTF-8" standalone="no"?>
<!-- Generator: IcoMoon.io -->

<svg
   xmlns:dc="http://purl.org/dc/elements/1.1/"
   xmlns:cc="http://creativecommons.org/ns#"
   xmlns:rdf="http://www.w3.org/1999/02/22-rdf-syntax-ns#"
   xmlns:svg="http://www.w3.org/2000/svg"
   xmlns="http://www.w3.org/2000/svg"
   xmlns:sodipodi="http://sodipodi.sourceforge.net/DTD/sodipodi-0.dtd"
   xmlns:inkscape="http://www.inkscape.org/namespaces/inkscape"
   width="120"
   height="24"
   viewBox="0 0 120 24"
   fill="#ffffff"
   id="svg2994"
   version="1.1"
   inkscape:version="0.48.3.1 r9886"
   sodipodi:docname="_icons.svg">
  <metadata
     id="metadata3002">
    <rdf:RDF>
      <cc:Work
         rdf:about="">
        <dc:format>image/svg+xml</dc:format>
        <dc:type
           rdf:resource="http://purl.org/dc/dcmitype/StillImage" />
      </cc:Work>
    </rdf:RDF>
  </metadata>
  <defs
     id="defs3000" />
  <sodipodi:namedview
     pagecolor="#ffffff"
     bordercolor="#666666"
     borderopacity="1"
     objecttolerance="10"
     gridtolerance="10"
     guidetolerance="10"
     inkscape:pageopacity="0"
     inkscape:pageshadow="2"
     inkscape:window-width="1257"
     inkscape:window-height="665"
     id="namedview2998"
     showgrid="false"
     inkscape:zoom="9.5572467"
     inkscape:cx="45.270341"
     inkscape:cy="12.562291"
     inkscape:window-x="140"
     inkscape:window-y="57"
     inkscape:window-maximized="0"
     inkscape:current-layer="svg2994" />
  <path
     id="path3163"
     d="m 62.307006,0.15368856 c -0.506304,0 -0.942003,0.1796119 -1.292739,0.53035642 L 51.766171,9.9321528 C 51.415407,10.2829 51.235812,10.718588 51.235812,11.2249 c 0,0.506309 0.179595,0.908851 0.530359,1.259598 l 9.248096,9.248108 c 0.350736,0.350745 0.786435,0.530357 1.292739,0.530357 0.506302,0 0.942001,-0.179612 1.292736,-0.530357 l 1.06072,-1.060715 c 0.350764,-0.350036 0.530359,-0.75753 0.530359,-1.259598 0,-0.502068 -0.179595,-0.932813 -0.530359,-1.292747 L 57.732675,11.2249 64.660462,4.297105 c 0.350764,-0.3507474 0.530359,-0.7532865 0.530359,-1.2595982 0,-0.5063117 -0.179595,-0.9419987 -0.530359,-1.2927462 L 63.599742,0.68404498 C 63.249007,0.33330046 62.813308,0.15368856 62.307006,0.15368856 z m 43.621874,0 c -0.51125,0 -0.91875,0.17042341 -1.25959,0.53035642 l -1.09385,1.06071562 c -0.35074,0.3500355 -0.53037,0.7906781 -0.53037,1.2927462 0,0.4928826 0.17963,0.9236168 0.53037,1.292747 l 6.89463,6.8946462 -6.89463,6.894646 c -0.35074,0.350036 -0.53037,0.790679 -0.53037,1.292747 0,0.492879 0.17963,0.923617 0.53037,1.292746 l 1.09385,1.060713 c 0.35073,0.350748 0.75824,0.53036 1.25959,0.53036 0.50138,0 0.94201,-0.179612 1.29276,-0.53036 l 9.24811,-9.248106 c 0.35074,-0.369841 0.53035,-0.800576 0.53035,-1.292746 0,-0.501368 -0.17961,-0.942 -0.53035,-1.2927472 L 107.22164,0.68404498 C 106.88082,0.32411197 106.44017,0.15368856 105.92888,0.15368856 z M 8.8735082,1.3469919 c -0.2453954,0 -6.1322562,13.3343731 -6.1322562,13.8887361 0,0.192847 0.3976319,0.360102 0.4946687,0.577422 0.5559728,0.222245 0.3074009,0.04743 0.5845223,-0.0043 C 3.6939034,15.54703 3.2326453,15.434611 4.5974925,15.434611 l 1.5247813,0 -0.7624003,0.563505 c -0.6676047,0.495959 -0.7423469,0.591401 -0.4308924,0.696095 0.1956547,0.06577 0.9820377,0.0062 1.7236569,-0.13259 L 7.9785242,16.296443 6.1885657,17.95381 C 4.10448,19.872441 3.124373,20.887259 3.470482,20.705039 c 0.1360279,-0.07162 0.2320168,-0.06571 0.2320168,0.03315 1.6036175,-0.05748 5.0616419,-2.245957 6.8946752,-2.784375 0.147574,-0.05637 0.07344,1.560044 -0.165763,3.480468 -0.146302,1.174881 0.329957,0.954157 1.491642,-0.696093 0.541675,-0.769454 0.995444,-1.42942 1.027577,-1.458483 0.03221,-0.02912 0.350037,0.369013 0.696089,0.861833 0.346041,0.492859 0.726678,0.894975 0.861843,0.894975 0.156489,0 0.362368,-0.522633 0.530354,-1.392187 l 0.265168,-1.35904 2.320313,2.22087 c 2.332033,2.235702 2.963682,2.670986 2.751234,1.789959 -0.06044,-0.250883 -0.275587,-1.358217 -0.497213,-2.452906 -0.221626,-1.094689 -0.447366,-2.107736 -0.497214,-2.25402 -0.06247,-0.18329 0.51131,-0.0114 1.889411,0.596653 2.939341,1.296928 3.163286,1.225264 1.756807,-0.563504 C 22.61639,17.09962 22.076906,16.406494 21.83412,16.064414 l -0.43092,-0.6298 1.524761,0 c 1.731611,-0.03145 2.665524,1.252273 2.088286,-0.165735 L 21.999855,8.3410865 C 19.987495,3.7685657 18.847774,1.4136621 18.651965,1.3801456 18.442873,1.3444335 17.663941,2.4029073 16.033314,5.0263517 L 13.713011,8.7720002 11.425838,5.0595005 C 10.154175,3.0204754 8.9946634,1.3469968 8.8735082,1.3469919 z m 9.7453148,0.4972115 2.618622,6.0991105 c 1.433478,3.3472951 2.705724,6.3292541 2.850696,6.6294661 l 0.265168,0.563506 -1.591083,-0.06629 -1.557931,-0.03315 -1.425319,-3.248439 C 18.935721,9.8490459 18.254883,8.5339713 18.088459,8.5068181 17.905514,8.4769756 17.118927,9.581481 15.768156,11.755256 l -2.055145,3.314735 -1.922543,-3.148998 C 10.722056,10.191401 9.7142502,8.7220887 9.5695973,8.6725547 9.2073737,8.5483764 9.1823917,8.6150525 7.6801768,12.053581 l -1.3258765,3.049555 -1.5579321,0 c -1.1445512,0 -1.4906602,-0.04424 -1.4253191,-0.198882 C 6.0814878,8.4892522 8.8993342,2.0494511 8.972951,2.1093796 c 0.053553,0.043561 1.061815,1.6812653 2.254012,3.6130601 1.192177,1.9317744 2.322137,3.518764 2.486048,3.5467662 0.210129,0.035848 0.790137,-0.785734 1.988854,-2.7512306 0.935022,-1.5331548 1.983264,-3.1931199 2.320302,-3.7124998 z m -0.563505,7.2924138 1.325886,3.1158508 c 0.729842,1.710867 1.429831,3.211039 1.557932,3.34788 0.128092,0.136824 0.705723,0.881951 1.292736,1.657368 l 1.060718,1.425335 -2.088295,-0.928126 c -1.151965,-0.500243 -2.145111,-0.85992 -2.220871,-0.795537 -0.07577,0.06451 0.106904,1.312053 0.430922,2.75123 0.324047,1.439189 0.578038,2.637678 0.563505,2.651788 -0.01446,0.01387 -0.157974,-0.135168 -0.33146,-0.331475 -0.965534,-1.092462 -4.191028,-4.034162 -4.474891,-4.077121 -0.276887,-0.04185 -0.346856,0.15601 -0.464063,1.093861 -0.07752,0.620645 -0.175397,1.180789 -0.232026,1.259597 -0.05656,0.07886 -0.355393,-0.208851 -0.662968,-0.629799 -0.307574,-0.420955 -0.676898,-0.762387 -0.828672,-0.762387 -0.151803,0 -0.746479,0.660285 -1.292735,1.458484 -0.546286,0.798208 -0.944958,1.255631 -0.894994,1.027566 0.05006,-0.228053 0.16426,-1.186399 0.232026,-2.121431 0.10797,-1.488531 0.07267,-1.690514 -0.198875,-1.690514 -0.373149,0 -6.0853402,2.430534 -6.6294808,2.817524 -0.2107409,0.149892 0.646911,-0.691574 1.9225616,-1.856251 2.2952437,-2.095569 2.7163277,-2.626064 2.0882671,-2.618639 -0.3206614,0.004 -1.7034579,0.245555 -2.4528967,0.430917 -0.2559024,0.0633 -0.1552761,-0.06381 0.3314885,-0.430917 0.6484633,-0.489052 0.928455,-0.970351 2.0882575,-3.646206 L 9.5033055,9.2360599 11.492131,12.517646 c 1.094325,1.795027 2.089392,3.248438 2.22088,3.248438 0.131536,0 0.807212,-0.904481 1.491639,-2.021988 0.684419,-1.117483 1.612233,-2.607332 2.055117,-3.314732 z"
     style="fill:#ffffff"
     inkscape:connector-curvature="0"
     sodipodi:nodetypes="sscscssccscccsccssccscccsccsscsscscsccsccsccccccccccsccccscscccccccccccccccccccccccccsccscscccccccccccccccsscccscsccscccsscc" />
  <path
     style="opacity:0.86813187;color:#000000;fill:#ffffff;fill-opacity:1;fill-rule:nonzero;stroke:#0090f3;stroke-width:0.11162402;stroke-linecap:round;stroke-linejoin:round;stroke-miterlimit:4;stroke-opacity:1;stroke-dasharray:none;stroke-dashoffset:0;marker:none;visibility:visible;display:inline;overflow:visible;enable-background:accumulate"
     d="M 27.016033,15.99405 25.154461,15.92663 24.212719,13.769004 C 22.56459,9.9929673 21.550101,8.0138742 21.288207,8.063778 c -0.257026,0.048976 -1.445671,1.7814146 -3.706245,5.401808 -0.822015,1.316489 -1.529569,2.39361 -1.572343,2.3936 -0.04278,-10e-6 -0.654261,-0.944108 -1.358861,-2.097998 -2.155366,-3.529742 -3.540016,-5.5211018 -3.83898,-5.5211018 -0.357532,0 -0.584627,0.4316364 -2.3157314,4.4014948 l -1.4618869,3.352472 -1.765567,0 c -0.9710619,0 -1.7992441,-0.03368 -1.8404053,-0.07484 C 3.3573168,15.848349 7.647797,5.7611295 9.3207757,2.0653324 9.7501598,1.1167747 10.16437,0.36164723 10.241243,0.38727151 c 0.07687,0.0256245 0.843391,1.16581639 1.703374,2.53376009 1.971756,3.1364007 3.596682,5.5788249 3.853167,5.7916876 0.424981,0.3527028 0.48399,0.2733235 4.148495,-5.5805602 1.062211,-1.6968344 1.977974,-3.09254851 2.035027,-3.1015871 0.09564,-0.0151521 7.021403,15.9788051 6.934812,16.0148681 -0.02118,0.0088 -0.876222,-0.01431 -1.900085,-0.05138 z"
     id="path3046"
     inkscape:connector-curvature="0" />
  <path
     style="opacity:0.86813187;color:#000000;fill:#ffff00;fill-opacity:1;fill-rule:nonzero;stroke:#0090f3;stroke-width:0.02559151;stroke-linecap:round;stroke-linejoin:round;stroke-miterlimit:4;stroke-opacity:1;stroke-dasharray:none;stroke-dashoffset:0;marker:none;visibility:visible;display:inline;overflow:visible;enable-background:accumulate"
     d="m 23.042671,24.273923 c -0.851109,-0.90673 -2.675568,-2.633858 -3.94949,-3.738792 -0.590716,-0.512356 -1.179013,-0.967341 -1.290622,-0.998158 -0.206513,-0.05702 -0.331862,0.06735 -0.420556,0.41733 -0.02573,0.101477 -0.102724,0.567095 -0.171114,1.034712 -0.17671,1.208185 -0.224897,1.422172 -0.320256,1.422172 -0.07562,0 -0.393891,-0.317296 -0.661271,-0.659249 -0.502992,-0.643276 -0.919265,-1.041175 -1.089256,-1.041175 -0.21964,0 -0.736614,0.575553 -1.624552,1.808633 -0.662382,0.919848 -1.00078,1.328218 -1.055387,1.273611 -0.01124,-0.01124 0.003,-0.183942 0.03159,-0.383843 0.150983,-1.055714 0.313039,-3.152743 0.289763,-3.749572 -0.02668,-0.684168 -0.08537,-0.701136 -1.105451,-0.319597 -1.632212,0.61049 -5.0294028,2.060848 -6.5516721,2.797094 -0.3471091,0.16788 -0.6391775,0.297165 -0.6490411,0.287301 -0.027826,-0.02782 0.9272634,-0.953716 2.0685265,-2.005285 2.6272896,-2.420806 3.2379712,-3.093816 3.0014857,-3.307832 -0.057386,-0.05193 -0.097833,-0.05601 -0.3811914,-0.03841 -0.4667129,0.02898 -1.4943661,0.202267 -2.4427099,0.411884 -0.2679197,0.05922 -0.5162564,0.103237 -0.5518594,0.09783 l -0.064732,-0.0099 0.068842,-0.08716 c 0.037864,-0.04793 0.2254922,-0.211189 0.4169531,-0.362785 0.993312,-0.786489 1.1427829,-1.061707 3.4160826,-6.28992 0.89373,-2.0554346 0.838538,-1.9322995 0.866104,-1.9322995 0.01189,0 0.554578,0.879969 1.205977,1.9554865 2.182453,3.603424 3.322013,5.361036 3.810516,5.877186 l 0.112569,0.118935 0.09193,-0.06547 c 0.194614,-0.138579 0.812232,-0.974737 1.417593,-1.919204 0.266196,-0.415312 2.625225,-4.213388 3.474494,-5.593994 0.161473,-0.2624963 0.306645,-0.4814895 0.322606,-0.4866515 0.01596,-0.00516 0.340771,0.724372 0.7218,1.6211875 1.342782,3.16046 1.861893,4.336706 2.411531,5.464254 0.29001,0.594941 0.364824,0.721165 0.597043,1.007338 0.599694,0.739024 2.671812,3.48217 2.647737,3.505172 -0.0061,0.0059 -0.47722,-0.197126 -1.046861,-0.451075 -2.240426,-0.998794 -3.60173,-1.543258 -4.046394,-1.618383 -0.169622,-0.02867 -0.178411,0.0013 -0.130651,0.445437 0.08626,0.802198 0.260309,1.711127 0.802714,4.192108 0.15234,0.696815 0.299634,1.385191 0.327319,1.529727 0.02769,0.144535 0.05704,0.294095 0.06526,0.332355 0.0082,0.03825 0.0021,0.06956 -0.01364,0.06956 -0.01571,0 -0.286488,-0.274773 -0.60172,-0.610607 l 0,0 z"
     id="path3048"
     inkscape:connector-curvature="0" />
</svg>
