<?xml version="1.0" encoding="UTF-8" standalone="no"?>
<!-- Generator: IcoMoon.io -->

<svg
   xmlns:dc="http://purl.org/dc/elements/1.1/"
   xmlns:cc="http://creativecommons.org/ns#"
   xmlns:rdf="http://www.w3.org/1999/02/22-rdf-syntax-ns#"
   xmlns:svg="http://www.w3.org/2000/svg"
   xmlns="http://www.w3.org/2000/svg"
   xmlns:sodipodi="http://sodipodi.sourceforge.net/DTD/sodipodi-0.dtd"
   xmlns:inkscape="http://www.inkscape.org/namespaces/inkscape"
   width="120"
   height="24"
   viewBox="0 0 120 24"
   fill="#ffffff"
   id="svg2"
   version="1.1"
   inkscape:version="0.48.3.1 r9886"
   sodipodi:docname="icons3.svg">
  <metadata
     id="metadata10">
    <rdf:RDF>
      <cc:Work
         rdf:about="">
        <dc:format>image/svg+xml</dc:format>
        <dc:type
           rdf:resource="http://purl.org/dc/dcmitype/StillImage" />
        <dc:title></dc:title>
      </cc:Work>
    </rdf:RDF>
  </metadata>
  <defs
     id="defs8" />
  <sodipodi:namedview
     pagecolor="#ffffff"
     bordercolor="#666666"
     borderopacity="1"
     objecttolerance="10"
     gridtolerance="10"
     guidetolerance="10"
     inkscape:pageopacity="0"
     inkscape:pageshadow="2"
     inkscape:window-width="1366"
     inkscape:window-height="744"
     id="namedview6"
     showgrid="false"
     inkscape:zoom="8.6269852"
     inkscape:cx="56.066874"
     inkscape:cy="-10.952163"
     inkscape:window-x="0"
     inkscape:window-y="24"
     inkscape:window-maximized="1"
     inkscape:current-layer="svg2" />
  <path
     d="m 18.712413,65.970683 q 0,0.536 -0.375,0.911 l -1.821,1.821 q -0.375,0.375 -0.911,0.375 -0.536,0 -0.911,-0.375 l -3.938,-3.938 -3.9379997,3.938 q -0.375,0.375 -0.911,0.375 -0.536,0 -0.911,-0.375 l -1.821,-1.821 q -0.375,-0.375 -0.375,-0.911 0,-0.536 0.375,-0.911 l 3.938,-3.938 -3.938,-3.938 q -0.375,-0.375 -0.375,-0.911 0,-0.536 0.375,-0.911 l 1.821,-1.821 q 0.375,-0.375 0.911,-0.375 0.536,0 0.911,0.375 l 3.9379997,3.938 3.938,-3.938 q 0.375,-0.375 0.911,-0.375 0.536,0 0.911,0.375 l 1.821,1.821 q 0.375,0.375 0.375,0.911 0,0.536 -0.375,0.911 l -3.938,3.938 3.938,3.938 q 0.375,0.375 0.375,0.911 z m 40.554,3.362 -8.732,-8.719 q -0.496,-0.496 -0.496,-1.212 0,-0.716 0.496,-1.212 l 8.732,-8.719 q 0.496,-0.496 1.212,-0.496 0.716,0 1.212,0.496 l 1.004,1.004 q 0.496,0.496 0.496,1.212 0,0.716 -0.496,1.212 l -6.509,6.509 6.509,6.496 q 0.496,0.509 0.496,1.219 0,0.71 -0.496,1.205 l -1.004,1.004 q -0.496,0.496 -1.212,0.496 -0.716,0 -1.212,-0.496 z m 52.780997,-9.924 q 0,0.696 -0.496,1.219 l -8.732,8.719 q -0.496,0.496 -1.205,0.496 -0.709,0 -1.205,-0.496 l -1.017997,-1.004 q -0.496,-0.522 -0.496,-1.219 0,-0.71 0.496,-1.205 l 6.508997,-6.509 -6.508997,-6.496 q -0.496,-0.522 -0.496,-1.219 0,-0.71 0.496,-1.205 l 1.017997,-1.004 q 0.482,-0.509 1.205,-0.509 0.723,0 1.205,0.509 l 8.732,8.719 q 0.496,0.496 0.496,1.205 z"
     id="path4"
     inkscape:connector-curvature="0" />
  <path
     id="path3163"
     d="m 61.741972,0.06164302 c -0.501596,0 -0.93326,0.17794515 -1.280743,0.52543509 L 51.298955,9.749374 c -0.347519,0.347493 -0.525437,0.779138 -0.525437,1.280751 0,0.501612 0.177918,0.900418 0.525437,1.247911 l 9.162274,9.162296 c 0.347483,0.34749 0.779147,0.525436 1.280743,0.525436 0.501607,0 0.933271,-0.177946 1.280754,-0.525436 L 64.0736,20.389459 c 0.347507,-0.346788 0.525437,-0.7505 0.525437,-1.24791 0,-0.49741 -0.17793,-0.924159 -0.525437,-1.280752 L 57.210092,11.030125 64.0736,4.166613 c 0.347507,-0.3474929 0.525437,-0.7462964 0.525437,-1.2479103 0,-0.5016139 -0.17793,-0.9332583 -0.525437,-1.2807513 L 63.022726,0.58707811 C 62.675243,0.23958817 62.243579,0.06164302 61.741972,0.06164302 z m 43.217128,0 c -0.5065,0 -0.91023,0.16884222 -1.2479,0.52543509 l -1.08372,1.05087329 c -0.34748,0.3467875 -0.52543,0.7833418 -0.52543,1.2807513 0,0.4883095 0.17795,0.9150469 0.52543,1.2807512 l 6.83068,6.8306711 -6.83068,6.830672 c -0.34748,0.346788 -0.52543,0.783342 -0.52543,1.280752 0,0.488306 0.17795,0.915047 0.52543,1.28075 l 1.08372,1.050871 c 0.34748,0.347493 0.75121,0.525438 1.2479,0.525438 0.49674,0 0.93327,-0.177945 1.28078,-0.525438 l 9.16228,-9.162293 c 0.34748,-0.36641 0.52544,-0.793147 0.52544,-1.280752 0,-0.496714 -0.17796,-0.933258 -0.52544,-1.280751 L 106.23988,0.58707811 C 105.9022,0.23048524 105.46564,0.06164302 104.9591,0.06164302 z M 8.8042891,1.2438743 c -0.2431201,0 -6.0753647,13.2106447 -6.0753647,13.7598627 0,0.191058 0.068083,0.507173 0.1641914,0.722475 0.1616627,0.362226 0.067841,0.477021 -1.3135806,1.182232 -1.94914309,0.994996 -1.98703904,1.277692 -0.1313775,1.14939 0.7515485,-0.05186 1.4551707,-0.100253 1.5763113,-0.131358 0.1212136,-0.03108 -0.4536208,0.509546 -1.3135805,1.215073 l -1.57631119,1.28075 c 0.57691334,0.742597 1.12549879,1.374594 2.06890989,1.839026 0.6867593,0.331162 1.7103635,0.547506 2.7257004,0.459759 L 4.1410198,22.589722 C 2.6047443,22.330809 0.79136759,21.230997 0.79136759,20.553658 c 0,-0.117141 0.64921591,-0.735401 1.44495801,-1.379271 1.6756893,-1.355898 1.8231638,-1.673934 0.6896286,-1.576309 -0.4243692,0.03666 -1.1427632,0.09374 -1.5763114,0.131358 -0.78524973,0.06816 -0.78651415,0.07929 0.689653,-0.656792 1.5074614,-0.75168 1.5613692,-0.791728 1.1822273,-1.576309 -0.1253594,-0.259389 -0.00608,-0.295559 1.3464189,-0.295559 l 1.5106468,0 -0.7553417,0.558275 c -0.6614102,0.491359 -0.7354514,0.585915 -0.4268978,0.689637 0.1938444,0.06515 0.9729303,0.0061 1.7076766,-0.13136 l 1.3135805,-0.262717 -1.7733532,1.641987 c -2.064752,1.900829 -3.0357493,2.906231 -2.692862,2.725701 0.1347696,-0.07096 0.2298681,-0.0651 0.2298681,0.03283 1.5887366,-0.05693 5.0146792,-2.225118 6.8306937,-2.758539 0.146211,-0.05584 0.07283,1.54557 -0.164215,3.448174 -0.144946,1.163979 0.326888,0.945304 1.477796,-0.689635 0.536646,-0.762314 0.986206,-1.416156 1.018035,-1.444951 0.03198,-0.02886 0.34679,0.36559 0.689629,0.853838 0.342839,0.488286 0.71995,0.88667 0.853844,0.88667 0.155049,0 0.359021,-0.517784 0.525449,-1.379268 l 0.262694,-1.34643 2.298791,2.200264 c 2.310389,2.214955 2.936177,2.646201 2.7257,1.773348 -0.05994,-0.248555 -0.273028,-1.345613 -0.492598,-2.430145 -0.219571,-1.084532 -0.443215,-2.088178 -0.492599,-2.233104 -0.06188,-0.181591 0.506568,-0.0113 1.87188,0.591116 2.912067,1.284893 3.133935,1.213894 1.740503,-0.558276 -0.407215,-0.51787 -0.941685,-1.204563 -1.182228,-1.54347 l -0.426922,-0.623954 1.510611,0 c 1.519984,0 1.541722,0.0061 2.955605,0.820993 1.153826,0.665025 1.473954,0.913967 1.57631,1.346431 0.119269,0.503714 0.12688,0.518899 0.09848,-0.09851 -0.02784,-0.604924 -0.122491,-0.714519 -1.280779,-1.444951 L 24.797196,15.036581 21.808789,8.173071 C 19.8151,3.6429783 18.685966,1.3099255 18.491975,1.2767203 18.284818,1.2413362 17.513112,2.2899918 15.897616,4.8890934 l -2.298778,3.710888 -2.265939,-3.678052 C 10.073031,2.901825 8.9242747,1.2438745 8.8042526,1.2438745 z m 9.6548849,0.492597 2.594322,6.0425175 c 1.42018,3.3162362 2.680619,6.2705252 2.824252,6.5679542 l 0.262694,0.558274 -1.576311,-0.06568 -1.543473,-0.03283 -1.412095,-3.218296 C 18.773125,9.6670432 18.098608,8.3641714 17.933736,8.3372699 17.752476,8.307707 16.973195,9.401961 15.634958,11.555566 l -2.036084,3.283977 -1.904693,-3.119778 C 10.635671,10.006222 9.637222,8.5505426 9.4939177,8.5014689 9.1350428,8.3784422 9.1103017,8.4444998 7.6220253,11.851123 l -1.3135806,3.021259 -1.5434729,0 c -1.1339243,0 -1.4768238,-0.04383 -1.4120955,-0.197037 C 6.0381762,8.3198672 8.8298692,1.9398202 8.902804,1.9991926 c 0.053008,0.04316 1.0519688,1.6656652 2.233101,3.5795348 1.181108,1.9138495 2.300589,3.4861141 2.462969,3.5138558 0.208191,0.035519 0.782807,-0.7784433 1.970408,-2.7257016 0.926341,-1.5189292 1.964863,-3.1634921 2.298777,-3.678052 l 0.591115,-0.9523533 z m -0.558276,7.2247489 1.313581,3.0869368 c 0.723062,1.694995 1.41657,3.181246 1.543472,3.316818 0.126904,0.135553 0.699185,0.873767 1.280743,1.64199 l 1.050874,1.412109 -2.06891,-0.919516 c -1.14128,-0.4956 -2.125213,-0.85194 -2.200263,-0.788154 -0.07501,0.0639 0.105894,1.299878 0.426922,2.725702 0.321039,1.425835 0.57267,2.613203 0.558275,2.627181 -0.01435,0.01374 -0.156507,-0.133913 -0.328382,-0.328397 -0.956579,-1.082326 -4.152142,-3.996731 -4.433365,-4.039292 -0.27433,-0.04146 -0.343641,0.154562 -0.459773,1.083712 -0.07684,0.614886 -0.17376,1.169833 -0.229856,1.247909 -0.05605,0.07813 -0.352103,-0.206914 -0.656827,-0.623954 -0.304724,-0.41705 -0.670614,-0.755313 -0.820981,-0.755313 -0.150393,0 -0.739561,0.654158 -1.280742,1.44495 -0.541206,0.790802 -0.936189,1.24398 -0.886682,1.018032 0.0496,-0.225937 0.162732,-1.175391 0.229867,-2.101747 0.106989,-1.474719 0.07198,-1.674827 -0.197029,-1.674827 -0.369684,0 -6.0288736,2.407979 -6.5679639,2.79138 -0.2087865,0.1485 0.6409,-0.685158 1.9047307,-1.839027 2.2739396,-2.076125 2.6911113,-2.601698 2.0688857,-2.594341 -0.3176841,0.004 -1.6876526,0.243277 -2.4301435,0.426919 -0.2535272,0.06271 -0.153833,-0.06322 0.3284195,-0.426919 0.6424441,-0.484515 0.9198371,-0.961348 2.0688857,-3.612373 L 9.428241,9.0597402 11.398612,12.310877 c 1.084174,1.77837 2.070004,3.218296 2.200262,3.218296 0.13032,0 0.79973,-0.896089 1.477797,-2.003226 0.678079,-1.107114 1.597284,-2.58314 2.036047,-3.283975 l 0.78818,-1.2807518 z m 7.618801,8.9652558 c -0.229515,0.05857 -0.02966,0.387739 0.59115,0.886674 1.133353,0.91098 1.475621,0.861305 0.558276,-0.06568 -0.293855,-0.296957 -0.298159,-0.290642 0.131353,-0.09852 0.247789,0.11077 0.487286,0.163832 0.525438,0.131358 0.146039,-0.124422 -0.229298,-0.37168 -0.95236,-0.656796 -0.42578,-0.167886 -0.716109,-0.232189 -0.853857,-0.197037 z m 1.477809,2.101743 c -0.04912,0.01155 -0.16993,0.157884 -0.295544,0.36124 -0.679332,1.099571 -1.92732,1.888447 -3.481043,2.200263 l -0.722466,0.131362 0.656789,0.03284 c 0.996334,0.02207 2.555042,-0.803045 3.283989,-1.740507 0.332103,-0.427073 0.595319,-0.854832 0.591113,-0.952353 0,-0.02437 -0.01642,-0.0367 -0.03282,-0.03284 z"
     style="fill:#ffff00"
     inkscape:connector-curvature="0" />
</svg>
