<?xml version="1.0" encoding="UTF-8" standalone="no"?>
<!-- Generator: IcoMoon.io -->

<svg
   xmlns:dc="http://purl.org/dc/elements/1.1/"
   xmlns:cc="http://creativecommons.org/ns#"
   xmlns:rdf="http://www.w3.org/1999/02/22-rdf-syntax-ns#"
   xmlns:svg="http://www.w3.org/2000/svg"
   xmlns="http://www.w3.org/2000/svg"
   xmlns:sodipodi="http://sodipodi.sourceforge.net/DTD/sodipodi-0.dtd"
   xmlns:inkscape="http://www.inkscape.org/namespaces/inkscape"
   width="120"
   height="24"
   viewBox="0 0 120 24"
   fill="#ffffff"
   id="svg2994"
   version="1.1"
   inkscape:version="0.48.3.1 r9886"
   sodipodi:docname="_icons.svg">
  <metadata
     id="metadata3002">
    <rdf:RDF>
      <cc:Work
         rdf:about="">
        <dc:format>image/svg+xml</dc:format>
        <dc:type
           rdf:resource="http://purl.org/dc/dcmitype/StillImage" />
      </cc:Work>
    </rdf:RDF>
  </metadata>
  <defs
     id="defs3000" />
  <sodipodi:namedview
     pagecolor="#ffffff"
     bordercolor="#666666"
     borderopacity="1"
     objecttolerance="10"
     gridtolerance="10"
     guidetolerance="10"
     inkscape:pageopacity="0"
     inkscape:pageshadow="2"
     inkscape:window-width="1257"
     inkscape:window-height="665"
     id="namedview2998"
     showgrid="false"
     inkscape:zoom="9.5572467"
     inkscape:cx="66.500006"
     inkscape:cy="12.562291"
     inkscape:window-x="15"
     inkscape:window-y="77"
     inkscape:window-maximized="0"
     inkscape:current-layer="svg2994" />
  <path
     id="path3163"
     d="m 62.307006,0.15368856 c -0.506304,0 -0.942003,0.1796119 -1.292739,0.53035642 L 51.766171,9.9321528 C 51.415407,10.2829 51.235812,10.718588 51.235812,11.2249 c 0,0.506309 0.179595,0.908851 0.530359,1.259598 l 9.248096,9.248108 c 0.350736,0.350745 0.786435,0.530357 1.292739,0.530357 0.506302,0 0.942001,-0.179612 1.292736,-0.530357 l 1.06072,-1.060715 c 0.350764,-0.350036 0.530359,-0.75753 0.530359,-1.259598 0,-0.502068 -0.179595,-0.932813 -0.530359,-1.292747 L 57.732675,11.2249 64.660462,4.297105 c 0.350764,-0.3507474 0.530359,-0.7532865 0.530359,-1.2595982 0,-0.5063117 -0.179595,-0.9419987 -0.530359,-1.2927462 L 63.599742,0.68404498 C 63.249007,0.33330046 62.813308,0.15368856 62.307006,0.15368856 z m 43.621874,0 c -0.51125,0 -0.91875,0.17042341 -1.25959,0.53035642 l -1.09385,1.06071562 c -0.35074,0.3500355 -0.53037,0.7906781 -0.53037,1.2927462 0,0.4928826 0.17963,0.9236168 0.53037,1.292747 l 6.89463,6.8946462 -6.89463,6.894646 c -0.35074,0.350036 -0.53037,0.790679 -0.53037,1.292747 0,0.492879 0.17963,0.923617 0.53037,1.292746 l 1.09385,1.060713 c 0.35073,0.350748 0.75824,0.53036 1.25959,0.53036 0.50138,0 0.94201,-0.179612 1.29276,-0.53036 l 9.24811,-9.248106 c 0.35074,-0.369841 0.53035,-0.800576 0.53035,-1.292746 0,-0.501368 -0.17961,-0.942 -0.53035,-1.2927472 L 107.22164,0.68404498 C 106.88082,0.32411197 106.44017,0.15368856 105.92888,0.15368856 z M 8.8735082,1.3469919 c -0.2453954,0 -6.1322562,13.3343731 -6.1322562,13.8887361 0,0.192847 0.3976319,0.360102 0.4946687,0.577422 0.5559728,0.222245 0.3074009,0.04743 0.5845223,-0.0043 C 3.6939034,15.54703 3.2326453,15.434611 4.5974925,15.434611 l 1.5247813,0 -0.7624003,0.563505 c -0.6676047,0.495959 -0.7423469,0.591401 -0.4308924,0.696095 0.1956547,0.06577 0.9820377,0.0062 1.7236569,-0.13259 L 7.9785242,16.296443 6.1885657,17.95381 C 4.10448,19.872441 3.124373,20.887259 3.470482,20.705039 c 0.1360279,-0.07162 0.2320168,-0.06571 0.2320168,0.03315 1.6036175,-0.05748 5.0616419,-2.245957 6.8946752,-2.784375 0.147574,-0.05637 0.07344,1.560044 -0.165763,3.480468 -0.146302,1.174881 0.329957,0.954157 1.491642,-0.696093 0.541675,-0.769454 0.995444,-1.42942 1.027577,-1.458483 0.03221,-0.02912 0.350037,0.369013 0.696089,0.861833 0.346041,0.492859 0.726678,0.894975 0.861843,0.894975 0.156489,0 0.362368,-0.522633 0.530354,-1.392187 l 0.265168,-1.35904 2.320313,2.22087 c 2.332033,2.235702 2.963682,2.670986 2.751234,1.789959 -0.06044,-0.250883 -0.275587,-1.358217 -0.497213,-2.452906 -0.221626,-1.094689 -0.447366,-2.107736 -0.497214,-2.25402 -0.06247,-0.18329 0.51131,-0.0114 1.889411,0.596653 2.939341,1.296928 3.163286,1.225264 1.756807,-0.563504 C 22.61639,17.09962 22.076906,16.406494 21.83412,16.064414 l -0.43092,-0.6298 1.524761,0 c 1.731611,-0.03145 2.665524,1.252273 2.088286,-0.165735 L 21.999855,8.3410865 C 19.987495,3.7685657 18.847774,1.4136621 18.651965,1.3801456 18.442873,1.3444335 17.663941,2.4029073 16.033314,5.0263517 L 13.713011,8.7720002 11.425838,5.0595005 C 10.154175,3.0204754 8.9946634,1.3469968 8.8735082,1.3469919 z m 9.7453148,0.4972115 2.618622,6.0991105 c 1.433478,3.3472951 2.705724,6.3292541 2.850696,6.6294661 l 0.265168,0.563506 -1.591083,-0.06629 -1.557931,-0.03315 -1.425319,-3.248439 C 18.935721,9.8490459 18.254883,8.5339713 18.088459,8.5068181 17.905514,8.4769756 17.118927,9.581481 15.768156,11.755256 l -2.055145,3.314735 -1.922543,-3.148998 C 10.722056,10.191401 9.7142502,8.7220887 9.5695973,8.6725547 9.2073737,8.5483764 9.1823917,8.6150525 7.6801768,12.053581 l -1.3258765,3.049555 -1.5579321,0 c -1.1445512,0 -1.4906602,-0.04424 -1.4253191,-0.198882 C 6.0814878,8.4892522 8.8993342,2.0494511 8.972951,2.1093796 c 0.053553,0.043561 1.061815,1.6812653 2.254012,3.6130601 1.192177,1.9317744 2.322137,3.518764 2.486048,3.5467662 0.210129,0.035848 0.790137,-0.785734 1.988854,-2.7512306 0.935022,-1.5331548 1.983264,-3.1931199 2.320302,-3.7124998 z m -0.563505,7.2924138 1.325886,3.1158508 c 0.729842,1.710867 1.429831,3.211039 1.557932,3.34788 0.128092,0.136824 0.705723,0.881951 1.292736,1.657368 l 1.060718,1.425335 -2.088295,-0.928126 c -1.151965,-0.500243 -2.145111,-0.85992 -2.220871,-0.795537 -0.07577,0.06451 0.106904,1.312053 0.430922,2.75123 0.324047,1.439189 0.578038,2.637678 0.563505,2.651788 -0.01446,0.01387 -0.157974,-0.135168 -0.33146,-0.331475 -0.965534,-1.092462 -4.191028,-4.034162 -4.474891,-4.077121 -0.276887,-0.04185 -0.346856,0.15601 -0.464063,1.093861 -0.07752,0.620645 -0.175397,1.180789 -0.232026,1.259597 -0.05656,0.07886 -0.355393,-0.208851 -0.662968,-0.629799 -0.307574,-0.420955 -0.676898,-0.762387 -0.828672,-0.762387 -0.151803,0 -0.746479,0.660285 -1.292735,1.458484 -0.546286,0.798208 -0.944958,1.255631 -0.894994,1.027566 0.05006,-0.228053 0.16426,-1.186399 0.232026,-2.121431 0.10797,-1.488531 0.07267,-1.690514 -0.198875,-1.690514 -0.373149,0 -6.0853402,2.430534 -6.6294808,2.817524 -0.2107409,0.149892 0.646911,-0.691574 1.9225616,-1.856251 2.2952437,-2.095569 2.7163277,-2.626064 2.0882671,-2.618639 -0.3206614,0.004 -1.7034579,0.245555 -2.4528967,0.430917 -0.2559024,0.0633 -0.1552761,-0.06381 0.3314885,-0.430917 0.6484633,-0.489052 0.928455,-0.970351 2.0882575,-3.646206 L 9.5033055,9.2360599 11.492131,12.517646 c 1.094325,1.795027 2.089392,3.248438 2.22088,3.248438 0.131536,0 0.807212,-0.904481 1.491639,-2.021988 0.684419,-1.117483 1.612233,-2.607332 2.055117,-3.314732 z"
     style="fill:#ffffff"
     inkscape:connector-curvature="0"
     sodipodi:nodetypes="sscscssccscccsccssccscccsccsscsscscsccsccsccccccccccsccccscscccccccccccccccccccccccccsccscscccccccccccccccsscccscsccscccsscc" />
  <path
     style="opacity:0.86813187;color:#000000;fill:#ffffff;fill-opacity:1;fill-rule:nonzero;stroke:#0090f3;stroke-width:0.09135699;stroke-linecap:round;stroke-linejoin:round;stroke-miterlimit:4;stroke-opacity:1;stroke-dasharray:none;stroke-dashoffset:0;marker:none;visibility:visible;display:inline;overflow:visible;enable-background:accumulate"
     d="m 22.71997,15.070482 -1.523575,-0.05518 -0.770754,-1.765876 c -1.348887,-3.090439 -2.17918,-4.7101979 -2.393524,-4.6693549 -0.210358,0.040083 -1.183187,1.4579719 -3.033319,4.4210279 -0.672766,1.077461 -1.251853,1.959014 -1.286861,1.959006 -0.03501,-8e-6 -0.53547,-0.772691 -1.112139,-1.717075 -1.764027,-2.888864 -2.8972722,-4.5186621 -3.1419551,-4.5186621 -0.292617,0 -0.4784789,0.3532663 -1.8952754,3.6023361 l -1.1964593,2.743781 -1.4450016,0 c -0.7947509,0 -1.4725642,-0.02756 -1.5062519,-0.06125 -0.058003,-0.058 3.4534757,-8.3137317 4.8226998,-11.338501 0.3514229,-0.7763327 0.6904271,-1.3943554 0.7533424,-1.3733836 0.062915,0.020972 0.6902608,0.9541448 1.3941011,2.0737177 1.613754,2.5669397 2.94365,4.5659049 3.153566,4.7401192 0.347819,0.2886642 0.396114,0.2236974 3.395273,-4.5673253 0.869351,-1.3887484 1.618843,-2.5310495 1.665537,-2.538447 0.07828,-0.012401 5.746561,13.077612 5.675692,13.107127 -0.01734,0.0072 -0.717131,-0.01171 -1.555096,-0.04206 z"
     id="path3046"
     inkscape:connector-curvature="0" />
  <path
     style="opacity:0.86813187000000003;color:#000000;fill:#ffff00;fill-opacity:1;fill-rule:nonzero;stroke:#0090f3;stroke-width:0.02094498000000000;stroke-linecap:round;stroke-linejoin:round;stroke-miterlimit:4;stroke-opacity:1;stroke-dasharray:none;stroke-dashoffset:0;marker:none;visibility:visible;display:inline;overflow:visible;enable-background:accumulate"
     d="m 19.468032,21.847019 c -0.696577,-0.742099 -2.189778,-2.155641 -3.2324,-3.059957 -0.483463,-0.41933 -0.964946,-0.791706 -1.05629,-0.816928 -0.169018,-0.04667 -0.271608,0.05513 -0.344198,0.341557 -0.02105,0.08305 -0.08407,0.464131 -0.140045,0.846845 -0.144626,0.988821 -0.184064,1.163955 -0.262109,1.163955 -0.06189,0 -0.322375,-0.259686 -0.541207,-0.539552 -0.411666,-0.52648 -0.752359,-0.852134 -0.891486,-0.852134 -0.17976,0 -0.60287,0.471053 -1.329589,1.480248 -0.542117,0.752836 -0.819074,1.08706 -0.863766,1.042368 -0.0092,-0.0092 0.0025,-0.150545 0.02586,-0.314151 0.123569,-0.864033 0.256201,-2.580315 0.237152,-3.06878 -0.02184,-0.559947 -0.06987,-0.573834 -0.90474,-0.261569 -1.3358597,0.499646 -4.1162389,1.686669 -5.3621172,2.289239 -0.2840862,0.137398 -0.5231252,0.24321 -0.5311978,0.235137 -0.022774,-0.02277 0.7589047,-0.780555 1.6929542,-1.641195 2.1502655,-1.981272 2.6500686,-2.532087 2.4565206,-2.707246 -0.046967,-0.0425 -0.08007,-0.04584 -0.3119803,-0.03144 -0.3819742,0.02372 -1.2230414,0.165542 -1.9991991,0.337101 -0.2192748,0.04847 -0.4225222,0.08449 -0.4516609,0.08006 l -0.052979,-0.0081 0.056343,-0.07133 c 0.030989,-0.03923 0.1845506,-0.172844 0.341249,-0.296915 0.8129611,-0.643691 0.9352933,-0.868938 2.7958412,-5.14789 0.7314606,-1.6822396 0.6862895,-1.5814615 0.7088497,-1.5814615 0.00973,0 0.4538867,0.7201973 0.9870146,1.6004385 1.786196,2.949168 2.718851,4.387658 3.118659,4.810094 l 0.09213,0.09734 0.07524,-0.05358 c 0.15928,-0.113418 0.664759,-0.797759 1.160208,-1.570744 0.217864,-0.339906 2.148576,-3.448384 2.843647,-4.5783197 0.132155,-0.2148361 0.250969,-0.3940678 0.264032,-0.3982926 0.01306,-0.00422 0.278899,0.5928513 0.590746,1.3268363 1.09898,2.586631 1.523838,3.549312 1.973681,4.472136 0.237355,0.48692 0.298585,0.590227 0.488642,0.824441 0.49081,0.604843 2.186703,2.84993 2.166999,2.868755 -0.005,0.0048 -0.390573,-0.161335 -0.856787,-0.369176 -1.833642,-0.817448 -2.947781,-1.263056 -3.31171,-1.324541 -0.138825,-0.02346 -0.146018,0.0011 -0.106929,0.364561 0.0706,0.656548 0.213046,1.400446 0.656969,3.430968 0.124681,0.570297 0.245231,1.133689 0.267889,1.251982 0.02266,0.118293 0.04669,0.240698 0.05341,0.272011 0.0067,0.03131 0.0017,0.05693 -0.01117,0.05693 -0.01286,0 -0.234472,-0.224884 -0.492469,-0.499742 l 0,0 z"
     id="path3048"
     inkscape:connector-curvature="0" />
</svg>
